HIERARCHY
ROOT hip
{
  OFFSET 0 0 0
  CHANNELS 6 Xposition Yposition Zposition Zrotation Yrotation Xrotation
  JOINT abdomen
  {
    OFFSET 0 20.6881 -0.73152
    CHANNELS 3 Zrotation Xrotation Yrotation
    JOINT chest
    {
      OFFSET 0 11.7043 -0.48768
      CHANNELS 3 Zrotation Xrotation Yrotation
      JOINT neck
      {
        OFFSET 0 22.1894 -2.19456
        CHANNELS 3 Zrotation Xrotation Yrotation
        JOINT head
        {
          OFFSET -0.24384 7.07133 1.2192
          CHANNELS 3 Zrotation Xrotation Yrotation
          JOINT leftEye
          {
            OFFSET 4.14528 8.04674 8.04672
            CHANNELS 3 Zrotation Xrotation Yrotation
            End Site
            {
              OFFSET 1 0 0
            }
          }
          JOINT rightEye
          {
            OFFSET -3.6576 8.04674 8.04672
            CHANNELS 3 Zrotation Xrotation Yrotation
            End Site
            {
              OFFSET 1 0 0
            }
          }
        }
      }
      JOINT rCollar
      {
        OFFSET -2.68224 19.2634 -4.8768
        CHANNELS 3 Zrotation Xrotation Yrotation
        JOINT rShldr
        {
          OFFSET -8.77824 -1.95073 1.46304
          CHANNELS 3 Zrotation Xrotation Yrotation
          JOINT rForeArm
          {
            OFFSET -28.1742 -1.7115 0.48768
            CHANNELS 3 Zrotation Xrotation Yrotation
            JOINT rHand
            {
              OFFSET -22.5879 0.773209 7.07136
              CHANNELS 3 Zrotation Xrotation Yrotation
              JOINT rThumb1
              {
                OFFSET -1.2192 -0.487915 3.41376
                CHANNELS 3 Zrotation Xrotation Yrotation
                JOINT rThumb2
                {
                  OFFSET -3.37035 -0.52449 3.41376
                  CHANNELS 3 Zrotation Xrotation Yrotation
                  End Site
                  {
                    OFFSET -1.78271 -1.18214 1.43049
                  }
                }
              }
              JOINT rIndex1
              {
                OFFSET -7.75947 0.938293 5.60832
                CHANNELS 3 Zrotation Xrotation Yrotation
                JOINT rIndex2
                {
                  OFFSET -2.54057 -0.884171 1.56538
                  CHANNELS 3 Zrotation Xrotation Yrotation
                  End Site
                  {
                    OFFSET -1.62519 -0.234802 1.16502
                  }
                }
              }
              JOINT rMid1
              {
                OFFSET -8.24714 1.18213 3.41376
                CHANNELS 3 Zrotation Xrotation Yrotation
                JOINT rMid2
                {
                  OFFSET -3.10165 -0.590103 1.0647
                  CHANNELS 3 Zrotation Xrotation Yrotation
                  End Site
                  {
                    OFFSET -2.48547 -0.328903 0.83742
                  }
                }
              }
              JOINT rRing1
              {
                OFFSET -8.82822 0.546677 1.51678
                CHANNELS 3 Zrotation Xrotation Yrotation
                JOINT rRing2
                {
                  OFFSET -2.60934 -0.819778 -0.0198488
                  CHANNELS 3 Zrotation Xrotation Yrotation
                  End Site
                  {
                    OFFSET -2.33842 -0.294052 0.168128
                  }
                }
              }
              JOINT rPinky1
              {
                OFFSET -8.27202 -0.0477905 -0.4584
                CHANNELS 3 Zrotation Xrotation Yrotation
                JOINT rPinky2
                {
                  OFFSET -1.82734 -0.647385 -0.700984
                  CHANNELS 3 Zrotation Xrotation Yrotation
                  End Site
                  {
                    OFFSET -1.69225 -0.51767 -0.607171
                  }
                }
              }
            }
          }
        }
      }
      JOINT lCollar
      {
        OFFSET 2.68224 19.2634 -4.8768
        CHANNELS 3 Zrotation Xrotation Yrotation
        JOINT lShldr
        {
          OFFSET 8.77824 -1.95073 1.46304
          CHANNELS 3 Zrotation Xrotation Yrotation
          JOINT lForeArm
          {
            OFFSET 28.1742 -1.7115 0.48768
            CHANNELS 3 Zrotation Xrotation Yrotation
            JOINT lHand
            {
              OFFSET 22.5879 0.773209 7.07136
              CHANNELS 3 Zrotation Xrotation Yrotation
              JOINT lThumb1
              {
                OFFSET 1.2192 -0.487915 3.41376
                CHANNELS 3 Zrotation Xrotation Yrotation
                JOINT lThumb2
                {
                  OFFSET 3.37035 -0.52449 3.41376
                  CHANNELS 3 Zrotation Xrotation Yrotation
                  End Site
                  {
                    OFFSET 1.78271 -1.18214 1.43049
                  }
                }
              }
              JOINT lIndex1
              {
                OFFSET 7.75947 0.938293 5.60832
                CHANNELS 3 Zrotation Xrotation Yrotation
                JOINT lIndex2
                {
                  OFFSET 2.54057 -0.884171 1.56538
                  CHANNELS 3 Zrotation Xrotation Yrotation
                  End Site
                  {
                    OFFSET 1.62519 -0.234802 1.16502
                  }
                }
              }
              JOINT lMid1
              {
                OFFSET 8.24714 1.18213 3.41376
                CHANNELS 3 Zrotation Xrotation Yrotation
                JOINT lMid2
                {
                  OFFSET 3.10165 -0.590103 1.0647
                  CHANNELS 3 Zrotation Xrotation Yrotation
                  End Site
                  {
                    OFFSET 2.48547 -0.328903 0.83742
                  }
                }
              }
              JOINT lRing1
              {
                OFFSET 8.82822 0.546677 1.51678
                CHANNELS 3 Zrotation Xrotation Yrotation
                JOINT lRing2
                {
                  OFFSET 2.60934 -0.819778 -0.0198488
                  CHANNELS 3 Zrotation Xrotation Yrotation
                  End Site
                  {
                    OFFSET 2.33842 -0.294052 0.168128
                  }
                }
              }
              JOINT lPinky1
              {
                OFFSET 8.27202 -0.0477905 -0.4584
                CHANNELS 3 Zrotation Xrotation Yrotation
                JOINT lPinky2
                {
                  OFFSET 1.82734 -0.647385 -0.700984
                  CHANNELS 3 Zrotation Xrotation Yrotation
                  End Site
                  {
                    OFFSET 1.69225 -0.51767 -0.607171
                  }
                }
              }
            }
          }
        }
      }
    }
  }
  JOINT rButtock
  {
    OFFSET -8.77824 4.35084 1.2192
    CHANNELS 3 Zrotation Xrotation Yrotation
    JOINT rThigh
    {
      OFFSET 0 -1.70687 -2.19456
      CHANNELS 3 Zrotation Xrotation Yrotation
      JOINT rShin
      {
        OFFSET 0 -36.8199 0.73152
        CHANNELS 3 Zrotation Xrotation Yrotation
        JOINT rFoot
        {
          OFFSET 0.73152 -45.1104 -5.12064
          CHANNELS 3 Zrotation Xrotation Yrotation
          End Site
          {
            OFFSET -1.1221 -3.69964 12.103
          }
        }
      }
    }
  }
  JOINT lButtock
  {
    OFFSET 8.77824 4.35084 1.2192
    CHANNELS 3 Zrotation Xrotation Yrotation
    JOINT lThigh
    {
      OFFSET 0 -1.70687 -2.19456
      CHANNELS 3 Zrotation Xrotation Yrotation
      JOINT lShin
      {
        OFFSET 0 -36.8199 0.73152
        CHANNELS 3 Zrotation Xrotation Yrotation
        JOINT lFoot
        {
          OFFSET -0.73152 -45.1104 -5.12064
          CHANNELS 3 Zrotation Xrotation Yrotation
          End Site
          {
            OFFSET 1.1221 -3.69964 12.103
          }
        }
      }
    }
  }
}
MOTION
Frames:	5
Frame Time:	0.00833333
-0.13018 88.1851 33.7761 3.7209 12.9974 3.0793 -12.6 5.60219 10.7585 0.21433 1.00522 2.74461 4.34091 20.1298 22.4995 -19.2739 -19.2589 40.8023 -0.0 0.0 0.0 -0.0 0.0 0.0 2.11903e-13 -3.91208e-13 6.4605e-15 82.0564 4.94724 -5.8114 -14.7 -7.53326 26.9733 -0.518405 20.0236 2.93587 -2.62781e-10 -7.85572e-10 1.56304e-09 -4.25528e-10 -1.38047e-09 2.70754e-09 -2.62772e-10 -7.85574e-10 1.56303e-09 7.73091 5.47488 0.417314 -2.62773e-10 -7.85583e-10 1.56304e-09 2.90554 0.965183 0.102902 -2.62777e-10 -7.85578e-10 1.56304e-09 10.2786 0.731801 0.0259123 -2.62784e-10 -7.85576e-10 1.56304e-09 2.22167 -0.733487 -0.20892 2.1192e-13 -3.91208e-13 6.26172e-15 -79.7381 0.477308 -5.32445 8.50033 -3.27858 -15.0176 1.622 33.6294 -5.36378 1.71949e-09 4.17082e-11 -2.45008e-09 2.90239e-09 5.04309e-11 -4.2701e-09 1.71949e-09 4.17102e-11 -2.45007e-09 -7.73091 5.47488 -0.417314 1.71949e-09 4.17101e-11 -2.45007e-09 -2.90554 0.965183 -0.102902 1.71948e-09 4.17102e-11 -2.45007e-09 -10.2786 0.731801 -0.0259123 1.7195e-09 4.17122e-11 -2.45008e-09 -2.22167 -0.733487 0.20892 -2.03217e-16 0.0 -3.88251e-19 -11.5785 -17.7227 -0.256166 -1.03069 58.2391 1.16423 -0.500774 10.4915 0.288677 2.03217e-16 0.0 3.88251e-19 -8.66403 -18.855 -6.11471 0.0497825 23.5822 0.0355302 -0.258282 -5.22291 -4.2702
0.152965 88.0749 34.5048 3.9755 13.1767 3.1727 -12.6736 5.57544 10.7977 0.190883 0.992122 2.75464 4.3892 20.1025 22.5567 -19.3957 -19.0609 40.9276 -0.0 0.0 0.0 -0.0 0.0 0.0 1.84696e-13 -3.59565e-13 6.30893e-14 82.0935 4.85519 -5.87705 -14.636 -7.47858 26.844 -0.539236 20.3968 2.99558 -9.3964e-10 -4.33356e-10 1.42758e-09 -1.59719e-09 -7.80559e-10 2.48601e-09 -9.39631e-10 -4.33361e-10 1.42757e-09 7.73091 5.47488 0.417314 -9.39633e-10 -4.33368e-10 1.42758e-09 2.90554 0.965183 0.102902 -9.39637e-10 -4.33364e-10 1.42758e-09 10.2786 0.731801 0.0259123 -9.39644e-10 -4.33362e-10 1.42759e-09 2.22167 -0.733487 -0.20892 1.8472e-13 -3.59563e-13 6.28816e-14 -79.6048 0.709571 -5.19954 8.60656 -3.33779 -15.2114 1.60221 33.4537 -5.32804 9.83051e-10 -3.39658e-10 -2.50901e-09 1.63206e-09 -6.0346e-10 -4.35313e-09 9.83051e-10 -3.39657e-10 -2.509e-09 -7.73091 5.47488 -0.417314 9.83053e-10 -3.39658e-10 -2.50901e-09 -2.90554 0.965183 -0.102902 9.83044e-10 -3.39657e-10 -2.509e-09 -10.2786 0.731801 -0.0259123 9.83061e-10 -3.39655e-10 -2.50901e-09 -2.22167 -0.733487 0.20892 -2.03217e-16 0.0 -3.88251e-19 -11.712 -18.8094 -0.449924 -1.09333 59.2141 1.22963 -0.486101 10.0087 -0.310778 2.03217e-16 0.0 3.88251e-19 -8.83014 -18.1838 -6.07102 0.0420789 23.3834 0.0222183 -0.29273 -5.71513 -4.34928
0.363565 88.0753 35.2345 3.9646 13.2475 3.3769 -12.7539 5.5061 10.8953 0.151896 0.989585 2.77958 4.38017 20.0918 22.6318 -19.3685 -18.8849 41.0996 -0.0 0.0 0.0 -0.0 0.0 0.0 1.16479e-13 -2.73233e-13 1.83578e-13 82.13 4.81296 -6.00767 -14.6038 -7.4514 26.7784 -0.557204 20.7172 3.04699 -1.96017e-09 1.47499e-10 1.11858e-09 -3.36568e-09 2.11398e-10 1.97067e-09 -1.96016e-09 1.47491e-10 1.11858e-09 7.73091 5.47488 0.417314 -1.96016e-09 1.47488e-10 1.11859e-09 2.90554 0.965183 0.102902 -1.96016e-09 1.47491e-10 1.11858e-09 10.2786 0.731801 0.0259123 -1.96017e-09 1.47494e-10 1.11859e-09 2.22167 -0.733487 -0.20892 1.16504e-13 -2.73225e-13 1.83351e-13 -79.4939 1.25787 -4.9371 8.82522 -3.4597 -15.6129 1.5476 32.9614 -5.22864 -3.41592e-10 -9.59833e-10 -2.30024e-09 -6.44733e-10 -1.66349e-09 -3.95945e-09 -3.41594e-10 -9.59832e-10 -2.30023e-09 -7.73091 5.47488 -0.417314 -3.41591e-10 -9.59834e-10 -2.30024e-09 -2.90554 0.965183 -0.102902 -3.416e-10 -9.59833e-10 -2.30024e-09 -10.2786 0.731801 -0.0259123 -3.41584e-10 -9.5983e-10 -2.30025e-09 -2.22167 -0.733487 0.20892 -2.03217e-16 0.0 -3.88251e-19 -11.876 -19.8324 -0.681838 -1.14532 59.9474 1.263 -0.427419 10.6256 -1.65521 2.03217e-16 0.0 3.88251e-19 -8.97206 -17.6264 -5.89935 0.0353956 23.3802 0.00996522 -0.349896 -6.33417 -4.48718
0.594193 88.0874 35.9931 4.0495 13.2301 3.4563 -12.8022 5.41741 11.0034 0.124513 0.978327 2.80873 4.34328 20.1053 22.7155 -19.2918 -18.75 41.2874 -0.0 0.0 0.0 -0.0 0.0 0.0 4.21028e-14 -1.74327e-13 2.95021e-13 82.1621 4.80883 -6.17394 -14.5985 -7.44727 26.767 -0.571579 20.9707 3.08778 -2.88565e-09 7.18845e-10 7.63745e-10 -4.97086e-09 1.18897e-09 1.37427e-09 -2.88564e-09 7.18834e-10 7.6374e-10 7.73091 5.47488 0.417314 -2.88565e-09 7.18836e-10 7.63748e-10 2.90554 0.965183 0.102902 -2.88564e-09 7.18837e-10 7.63747e-10 10.2786 0.731801 0.0259123 -2.88566e-09 7.1884e-10 7.63751e-10 2.22167 -0.733487 -0.20892 4.21225e-14 -1.74315e-13 2.94777e-13 -79.3992 1.93015 -4.65081 9.06747 -3.59522 -16.0618 1.48006 32.3312 -5.10328 -1.64343e-09 -1.53493e-09 -1.98057e-09 -2.87941e-09 -2.64529e-09 -3.37501e-09 -1.64343e-09 -1.53493e-09 -1.98056e-09 -7.73091 5.47488 -0.417314 -1.64343e-09 -1.53493e-09 -1.98057e-09 -2.90554 0.965183 -0.102902 -1.64344e-09 -1.53493e-09 -1.98057e-09 -10.2786 0.731801 -0.0259123 -1.64342e-09 -1.53493e-09 -1.98058e-09 -2.22167 -0.733487 0.20892 -2.03217e-16 0.0 -3.88251e-19 -11.9952 -20.8165 -0.901564 -1.18544 60.4964 1.28115 -0.316174 11.3977 -3.23709 2.03217e-16 0.0 3.88251e-19 -9.0547 -17.142 -5.6458 0.0299677 23.4688 -0.00443674 -0.419962 -6.96976 -4.66795
0.761666 88.1159 36.8653 3.9827 13.3108 3.2963 -12.78 5.33257 11.0742 0.1359 0.939068 2.83138 4.30794 20.1507 22.7987 -19.2647 -18.6749 41.4603 -0.0 0.0 0.0 -0.0 0.0 0.0 -3.58519e-15 -1.04965e-13 3.24516e-13 82.1863 4.83106 -6.34659 -14.6151 -7.46162 26.8001 -0.58161 21.143 3.11564 -3.27737e-09 1.04253e-09 4.90769e-10 -5.65265e-09 1.74572e-09 9.09534e-10 -3.27736e-09 1.04252e-09 4.90766e-10 7.73091 5.47488 0.417314 -3.27737e-09 1.04252e-09 4.90772e-10 2.90554 0.965183 0.102902 -3.27736e-09 1.04253e-09 4.90772e-10 10.2786 0.731801 0.0259123 -3.27738e-09 1.04253e-09 4.90775e-10 2.22167 -0.733487 -0.20892 -3.57137e-15 -1.04951e-13 3.24267e-13 -79.307 2.53375 -4.45383 9.24708 -3.69623 -16.3969 1.41887 31.7419 -4.9877 -2.31144e-09 -1.78106e-09 -1.70679e-09 -4.02338e-09 -3.06447e-09 -2.88574e-09 -2.31145e-09 -1.78106e-09 -1.70678e-09 -7.73091 5.47488 -0.417314 -2.31144e-09 -1.78106e-09 -1.7068e-09 -2.90554 0.965183 -0.102902 -2.31145e-09 -1.78106e-09 -1.70679e-09 -10.2786 0.731801 -0.0259123 -2.31144e-09 -1.78106e-09 -1.7068e-09 -2.22167 -0.733487 0.20892 -2.03217e-16 0.0 -3.88251e-19 -11.9913 -21.7866 -1.05758 -1.21494 60.919 1.30307 -0.245804 11.3912 -4.52929 2.03217e-16 0.0 3.88251e-19 -9.04115 -16.6907 -5.35609 0.0259449 23.5452 -0.0241614 -0.491304 -7.51175 -4.87514
